<svg width="24" height="24" viewBox="0 0 24 24" fill="none" xmlns="http://www.w3.org/2000/svg">
  <title>Location marker (outlined)</title>
  <g transform="matrix(
          1 0
          0 1
          2.5250396728515625 0
        )"><path fill-rule="evenodd" clip-rule="evenodd" d="M 9.474960327148438 0 C 11.874984741210938 0 14.374984741210938 0.9000244140625 16.174972534179688 2.800048828125 C 19.874984741210938 6.5 19.874984741210938 12.5999755859375 16.174972534179688 16.199951171875 L 9.474960327148438 23 L 2.7750091552734375 16.300048828125 C -0.9250030517578125 12.5999755859375 -0.9250030517578125 6.5 2.7750091552734375 2.800048828125 C 4.5749969482421875 0.9000244140625 7.0749969482421875 0 9.474960327148438 0 Z M 9.474960327148438 18.800048828125 L 14.074996948242188 14.199951171875 C 16.574996948242188 11.5999755859375 16.574996948242188 7.5 14.074996948242188 4.9000244140625 C 12.874984741210938 3.699951171875 11.174972534179688 3 9.474960327148438 3 C 7.7750091552734375 3 6.0749969482421875 3.699951171875 4.8749847412109375 4.9000244140625 C 2.3749847412109375 7.5 2.3749847412109375 11.5999755859375 4.8749847412109375 14.199951171875 L 9.474960327148438 18.800048828125 Z M 11.474960327148438 9.5 C 11.474960327148438 10.6046142578125 10.579513549804688 11.5 9.474960327148438 11.5 C 8.370407104492188 11.5 7.4749603271484375 10.6046142578125 7.4749603271484375 9.5 C 7.4749603271484375 8.3953857421875 8.370407104492188 7.5 9.474960327148438 7.5 C 10.579513549804688 7.5 11.474960327148438 8.3953857421875 11.474960327148438 9.5 Z" fill="currentColor"/></g>
</svg>