<svg width="24" height="24" viewBox="0 0 24 24" fill="none" xmlns="http://www.w3.org/2000/svg">
  <title>Money (outlined)</title>
  <g transform="matrix(
          1 0
          0 1
          1 4
        )"><path fill-rule="evenodd" clip-rule="evenodd" d="M 0 16 L 0 0 L 22 0 L 22 16 L 0 16 Z M 16 10 L 19 10 L 19 3 L 6 3 L 6 6 L 3 6 L 3 13 L 16 13 L 16 10 Z M 14 8 C 14 9.65673828125 12.65673828125 11 11 11 C 9.34326171875 11 8 9.65673828125 8 8 C 8 6.34326171875 9.34326171875 5 11 5 C 12.65673828125 5 14 6.34326171875 14 8 Z" fill="currentColor"/></g>
</svg>